<svg width="1201" height="447" viewBox="0 0 1201 447" version="1.1" xmlns="http://www.w3.org/2000/svg" xml:space="preserve" style="fill-rule:evenodd;clip-rule:evenodd;">
    <style>
        @media (prefers-color-scheme: dark) {
            .dist-text path {
                fill: rgb(230, 225, 255) !important;
                stroke: rgb(180, 170, 240) !important;
            }
        }
    </style>
    <g>
        <path d="M254,10L413,71C426.333,76.333 433,86.333 433,101L433,203C433,288.333 374,363 256,427C137.333,363.667 78,289.333 78,204L78,101C78,86.333 85,76.333 99,71L254,10Z" style="fill:url(#_Linear1);fill-rule:nonzero;"/>
        <path d="M254,33L394,87C407.333,92.333 414,102 414,116L414,202C414,274.667 361.333,340.667 256,400C150.667,340.667 98,274.667 98,202L98,116C98,102 104.667,92.333 118,87L254,33Z" style="fill:url(#_Linear2);fill-rule:nonzero;stroke:rgb(127,220,255);stroke-opacity:0.55;stroke-width:2px;"/>
        <g>
            <clipPath id="_clip3">
                <path d="M254,10L413,71C426.333,76.333 433,86.333 433,101L433,203C433,288.333 374,363 256,427C137.333,363.667 78,289.333 78,204L78,101C78,86.333 85,76.333 99,71L254,10Z"/>
            </clipPath>
            <g clip-path="url(#_clip3)">
                <g opacity="0.22">
                    <path d="M81,79L255,15L431,82L431,132L75,239L81,79Z" style="fill:white;fill-rule:nonzero;"/>
                    <path d="M66,274L450,156L450,450L66,450L66,274Z" style="fill-rule:nonzero;"/>
                </g>
            </g>
        </g>
    </g>
    <g>
        <path d="M134,94L163,94" style="fill:none;fill-rule:nonzero;stroke:rgb(159,102,255);stroke-width:10px;stroke-linecap:round;stroke-linejoin:round;"/>
        <path d="M175,94L179,94" style="fill:none;fill-rule:nonzero;stroke:rgb(159,102,255);stroke-width:10px;stroke-linecap:round;stroke-linejoin:round;"/>
        <path d="M194,94L228,94" style="fill:none;fill-rule:nonzero;stroke:rgb(159,102,255);stroke-width:10px;stroke-linecap:round;stroke-linejoin:round;"/>
        <path d="M247,94L255,94" style="fill:none;fill-rule:nonzero;stroke:rgb(100,167,255);stroke-width:10px;stroke-linecap:round;stroke-linejoin:round;"/>
        <path d="M274,94L278,94" style="fill:none;fill-rule:nonzero;stroke:rgb(73,213,255);stroke-width:10px;stroke-linecap:round;stroke-linejoin:round;"/>
        <path d="M178,119L195,119" style="fill:none;fill-rule:nonzero;stroke:rgb(159,102,255);stroke-width:9px;stroke-linecap:round;stroke-linejoin:round;"/>
        <path d="M211,119L218,119" style="fill:none;fill-rule:nonzero;stroke:rgb(159,102,255);stroke-width:9px;stroke-linecap:round;stroke-linejoin:round;"/>
        <path d="M231,119L310,119" style="fill:none;fill-rule:nonzero;stroke:rgb(56,212,255);stroke-width:9px;stroke-linecap:round;stroke-linejoin:round;"/>
        <path d="M239,145L264,145" style="fill:none;fill-rule:nonzero;stroke:rgb(53,112,218);stroke-width:6px;stroke-linecap:round;stroke-linejoin:round;"/>
        <path d="M286,145L322,145" style="fill:none;fill-rule:nonzero;stroke:rgb(25,191,255);stroke-width:6px;stroke-linecap:round;stroke-linejoin:round;"/>
        <path d="M240,166L255,166" style="fill:none;fill-rule:nonzero;stroke:rgb(67,131,237);stroke-width:8px;stroke-linecap:round;stroke-linejoin:round;"/>
        <path d="M274,166L301,166" style="fill:none;fill-rule:nonzero;stroke:rgb(37,201,255);stroke-width:8px;stroke-linecap:round;stroke-linejoin:round;"/>
        <path d="M240,191L286,191" style="fill:none;fill-rule:nonzero;stroke:rgb(70,135,239);stroke-width:6px;stroke-linecap:round;stroke-linejoin:round;"/>
    </g>
    <g>
        <g transform="matrix(1,0,0,1,341,134)">
            <text x="0px" y="0px" style="font-family:'Menlo-Bold', 'Menlo', monospace;font-weight:700;font-size:31px;fill:none;stroke:rgb(76,227,255);stroke-width:2.4px;">01</text>
        </g>
        <g transform="matrix(1,0,0,1,341,174)">
            <text x="0px" y="0px" style="font-family:'Menlo-Bold', 'Menlo', monospace;font-weight:700;font-size:31px;fill:none;stroke:rgb(76,227,255);stroke-width:2.4px;">10</text>
        </g>
        <g transform="matrix(1,0,0,1,341,214)">
            <text x="0px" y="0px" style="font-family:'Menlo-Bold', 'Menlo', monospace;font-weight:700;font-size:31px;fill:none;stroke:rgb(76,227,255);stroke-width:2.4px;">01</text>
        </g>
    </g>
    <g>
        <path d="M262,286L262,258C262,237 277,220 296,220C315,220 331,237 331,258L331,286" style="fill:none;fill-rule:nonzero;stroke:url(#_Linear4);stroke-width:18px;stroke-linecap:round;"/>
        <path d="M262,286L262,258C262,237 277,220 296,220C315,220 331,237 331,258L331,286" style="fill:none;fill-rule:nonzero;stroke:white;stroke-opacity:0.18;stroke-width:5px;stroke-linecap:round;"/>
        <path d="M362,298L362,370C362,376.071 357.071,381 351,381L242,381C235.929,381 231,376.071 231,370L231,298C231,291.929 235.929,287 242,287L351,287C357.071,287 362,291.929 362,298Z" style="fill:url(#_Linear5);"/>
        <path d="M353,303L353,365C353,368.863 349.863,372 346,372L247,372C243.137,372 240,368.863 240,365L240,303C240,299.137 243.137,296 247,296L346,296C349.863,296 353,299.137 353,303Z" style="fill:white;fill-opacity:0.12;"/>
        <circle cx="297" cy="329" r="14" style="fill:rgb(6,19,66);"/>
        <path d="M292,338L285,361L309,361L302,338L292,338Z" style="fill:rgb(6,19,66);fill-rule:nonzero;"/>
    </g>
    <g>
        <circle cx="145" cy="207" r="76" style="fill:url(#_Linear6);"/>
        <circle cx="145" cy="207" r="65" style="fill:rgb(19,11,80);"/>
        <circle cx="145" cy="207" r="55" style="fill:rgb(23,16,92);fill-opacity:0.92;"/>
        <path d="M104,197C110,181 122,171 141,166" style="fill:none;fill-rule:nonzero;stroke:rgb(255,161,255);stroke-width:10px;stroke-linecap:round;"/>
        <path d="M91,263L37,319" style="fill:none;fill-rule:nonzero;stroke:url(#_Linear7);stroke-width:33px;stroke-linecap:round;"/>
        <path d="M91,263L37,319" style="fill:none;fill-rule:nonzero;stroke:white;stroke-opacity:0.18;stroke-width:8px;stroke-linecap:round;"/>
    </g>
    <g id="wordmark">
        <g class="dist-text">
          <g transform="matrix(1,0,0,1,-13,0)">
              <path d="M547.85,201.37L555.31,162.7L578.58,162.7L559.07,263L535.78,263L537.92,252.56C534.387,256.773 530.69,259.883 526.83,261.89C522.963,263.883 518.727,264.88 514.12,264.88C506.007,264.88 499.587,262.3 494.86,257.14C490.127,251.987 487.76,244.96 487.76,236.06C487.76,230.52 488.587,225.13 490.24,219.89C491.907,214.637 494.287,209.867 497.38,205.58C501.28,200.16 505.693,196.057 510.62,193.27C515.54,190.477 520.813,189.08 526.44,189.08C531.387,189.08 535.587,190.077 539.04,192.07C542.507,194.063 545.443,197.163 547.85,201.37ZM523.55,248.11C529.477,248.11 534.297,245.38 538.01,239.92C541.737,234.46 543.6,227.33 543.6,218.53C543.6,214.53 542.553,211.417 540.46,209.19C538.373,206.95 535.467,205.83 531.74,205.83C525.893,205.83 521.08,208.523 517.3,213.91C513.52,219.303 511.63,226.213 511.63,234.64C511.63,239.027 512.647,242.367 514.68,244.66C516.713,246.96 519.67,248.11 523.55,248.11Z" style="fill:rgb(5,22,75);stroke:rgb(5,34,89);stroke-width:2px;"/>
          </g>
            <g transform="matrix(1,0,0,1,-23,0)">
              <path d="M595.6,190.81L618.8,190.81L604.69,263L581.55,263L595.6,190.81Z" style="fill:rgb(5,22,75);stroke:rgb(5,34,89);stroke-width:2px;"/>
          </g>
            <g transform="matrix(1,0,0,1,-23,0)">
              <path d="M601.02,162.7L624.22,162.7L620.55,181.53L597.27,181.53L601.02,162.7Z" style="fill:rgb(5,22,75);stroke:rgb(5,34,89);stroke-width:2px;"/>
          </g>
            <g transform="matrix(1,0,0,1,-33,0)">
              <path d="M696.65,193.06L693.25,210.98C688.743,208.84 684.253,207.213 679.78,206.1C675.313,204.967 671.08,204.4 667.08,204.4C662.527,204.4 659.013,204.993 656.54,206.18C654.067,207.36 652.83,209.05 652.83,211.25C652.83,212.53 653.517,213.563 654.89,214.35C656.263,215.117 658.97,215.927 663.01,216.78L667.2,217.56C676.527,219.54 683.06,222.093 686.8,225.22C690.54,228.327 692.41,232.65 692.41,238.19C692.41,246.563 689.123,253.107 682.55,257.82C675.977,262.527 666.783,264.88 654.97,264.88C650.023,264.88 644.97,264.487 639.81,263.7C634.657,262.933 629.397,261.78 624.03,260.24L627.5,242.11C631.667,244.57 636.12,246.427 640.86,247.68C645.62,248.913 650.497,249.53 655.49,249.53C660.343,249.53 663.993,248.953 666.44,247.8C668.887,246.633 670.11,244.933 670.11,242.7C670.11,241.147 669.423,239.947 668.05,239.1C666.677,238.233 663.837,237.347 659.53,236.44L655.34,235.67C647.093,233.95 641.21,231.413 637.69,228.06C634.17,224.707 632.41,220.067 632.41,214.14C632.41,206.107 635.447,199.927 641.52,195.6C647.6,191.253 656.29,189.08 667.59,189.08C672.53,189.08 677.393,189.41 682.18,190.07C686.973,190.73 691.797,191.727 696.65,193.06Z" style="fill:rgb(5,22,75);stroke:rgb(5,34,89);stroke-width:2px;"/>
          </g>
            <g transform="matrix(1,0,0,1,-39,0)">
              <path d="M748.8,170.31L744.88,190.81L768.46,190.81L765.18,207.31L741.58,207.31L735.66,237.86C735.487,238.547 735.363,239.13 735.29,239.61C735.237,240.077 735.21,240.523 735.21,240.95C735.21,242.93 735.863,244.353 737.17,245.22C738.477,246.073 740.677,246.5 743.77,246.5L755.71,246.5L752.41,263L733.02,263C726.053,263 720.74,261.543 717.08,258.63C713.44,255.697 711.62,251.48 711.62,245.98C711.62,244.773 711.68,243.483 711.8,242.11C711.94,240.73 712.14,239.333 712.4,237.92L718.32,207.31L706.97,207.31L710.13,190.81L721.6,190.81L725.6,170.31L748.8,170.31Z" style="fill:rgb(5,22,75);stroke:rgb(5,34,89);stroke-width:2px;"/>
          </g>
        </g>
        <g transform="matrix(1,0,0,1,2,0)">
            <path d="M735.03,215.62L775.5,215.62L771.83,234.37L731.28,234.37L735.03,215.62Z" style="fill:url(#_Linear8);"/>
        </g>
        <path d="M837.96,250.75C834.26,254.957 830.5,258.05 826.68,260.03C822.853,262.01 818.687,263 814.18,263C806.013,263 799.557,260.367 794.81,255.1C790.063,249.833 787.69,242.65 787.69,233.55C787.69,228.697 788.517,223.827 790.17,218.94C791.817,214.06 794.187,209.477 797.28,205.19C801.067,199.99 805.407,196.03 810.3,193.31C815.207,190.57 820.473,189.2 826.1,189.2C831.173,189.2 835.437,190.19 838.89,192.17C842.35,194.137 845.263,197.253 847.63,201.52L849.57,190.81L872.83,190.81L860.64,253.53C858.153,266.457 852.827,276.013 844.66,282.2C836.493,288.387 825.15,291.48 810.63,291.48C806.163,291.48 801.853,291.137 797.7,290.45C793.56,289.763 789.47,288.713 785.43,287.3L788.85,269.31C792.49,271.637 796.14,273.37 799.8,274.51C803.46,275.65 807.2,276.22 811.02,276.22C818.667,276.22 824.537,274.583 828.63,271.31C832.743,268.05 835.51,262.853 836.93,255.72L837.96,250.75ZM831.52,205.83C825.84,205.83 821.117,208.387 817.35,213.5C813.597,218.613 811.72,225.033 811.72,232.76C811.72,237.147 812.73,240.49 814.75,242.79C816.777,245.083 819.72,246.23 823.58,246.23C829.22,246.23 833.93,243.687 837.71,238.6C841.49,233.513 843.38,227.167 843.38,219.56C843.38,215.093 842.37,211.69 840.35,209.35C838.33,207.003 835.387,205.83 831.52,205.83Z" style="fill:url(#_Linear9);"/>
        <g transform="matrix(1,0,0,1,-14,0)">
            <path d="M886.22,234.89L894.68,190.81L917.82,190.81L910.54,228.39C910.02,230.837 909.63,232.92 909.37,234.64C909.117,236.36 908.99,237.713 908.99,238.7C908.99,241.413 909.74,243.517 911.24,245.01C912.74,246.51 914.887,247.26 917.68,247.26C922.447,247.26 926.55,245.42 929.99,241.74C933.43,238.04 935.797,232.903 937.09,226.33L944.06,190.81L967.18,190.81L953.19,263L929.93,263L932.05,252.42C928.103,256.6 923.96,259.72 919.62,261.78C915.287,263.847 910.713,264.88 905.9,264.88C899.313,264.88 894.213,263.14 890.6,259.66C886.993,256.167 885.19,251.243 885.19,244.89C885.19,243.377 885.273,241.79 885.44,240.13C885.62,238.45 885.88,236.703 886.22,234.89Z" style="fill:url(#_Linear10);"/>
        </g>
        <g transform="matrix(1,0,0,1,-24,0)">
            <path d="M1050.71,221.81L1042.67,263L1019.59,263L1021.53,252.3C1017.75,256.6 1013.75,259.773 1009.53,261.82C1005.317,263.86 1000.743,264.88 995.81,264.88C988.977,264.88 983.547,263.107 979.52,259.56C975.5,256.007 973.49,251.22 973.49,245.2C973.49,236.013 977.047,228.98 984.16,224.1C991.28,219.22 1001.543,216.78 1014.95,216.78L1028.54,216.78L1028.81,214.99C1028.937,214.383 1029.007,213.957 1029.02,213.71C1029.047,213.443 1029.06,213.2 1029.06,212.98C1029.06,210.153 1027.72,208.017 1025.04,206.57C1022.353,205.123 1018.363,204.4 1013.07,204.4C1008.303,204.4 1003.683,204.897 999.21,205.89C994.743,206.877 990.427,208.36 986.26,210.34L989.75,192.75C994.563,191.543 999.49,190.63 1004.53,190.01C1009.577,189.39 1014.81,189.08 1020.23,189.08C1030.93,189.08 1038.877,190.917 1044.07,194.59C1049.27,198.257 1051.87,203.853 1051.87,211.38C1051.87,212.833 1051.773,214.433 1051.58,216.18C1051.387,217.913 1051.097,219.79 1050.71,221.81ZM1014.68,230.52C1008.933,230.52 1004.583,231.413 1001.63,233.2C998.683,234.973 997.21,237.6 997.21,241.08C997.21,243.7 998.083,245.767 999.83,247.28C1001.577,248.78 1003.97,249.53 1007.01,249.53C1011.737,249.53 1015.69,248.1 1018.87,245.24C1022.057,242.38 1024.187,238.353 1025.26,233.16L1025.78,230.52L1014.68,230.52Z" style="fill:url(#_Linear11);"/>
        </g>
        <g transform="matrix(1,0,0,1,-37,0)">
            <path d="M1128.2,210.47C1126.6,209.563 1124.833,208.877 1122.9,208.41C1120.973,207.937 1118.89,207.7 1116.65,207.7C1110.763,207.7 1105.873,209.593 1101.98,213.38C1098.107,217.16 1095.48,222.61 1094.1,229.73L1087.52,263L1064.38,263L1078.43,190.81L1101.63,190.81L1099.12,203.19C1102.167,198.637 1105.98,195.15 1110.56,192.73C1115.14,190.297 1120.22,189.08 1125.8,189.08C1126.613,189.08 1127.537,189.12 1128.57,189.2C1129.603,189.287 1130.833,189.42 1132.26,189.6L1128.2,210.47Z" style="fill:url(#_Linear12);"/>
        </g>
        <g transform="matrix(1,0,0,1,-39,0)">
            <path d="M1190.26,201.37L1197.73,162.7L1220.99,162.7L1201.48,263L1178.2,263L1180.34,252.56C1176.807,256.773 1173.11,259.883 1169.25,261.89C1165.383,263.883 1161.147,264.88 1156.54,264.88C1148.427,264.88 1142.007,262.3 1137.28,257.14C1132.547,251.987 1130.18,244.96 1130.18,236.06C1130.18,230.52 1131.007,225.13 1132.66,219.89C1134.32,214.637 1136.697,209.867 1139.79,205.58C1143.697,200.16 1148.11,196.057 1153.03,193.27C1157.957,190.477 1163.23,189.08 1168.85,189.08C1173.803,189.08 1178.007,190.077 1181.46,192.07C1184.92,194.063 1187.853,197.163 1190.26,201.37ZM1165.97,248.11C1171.897,248.11 1176.713,245.38 1180.42,239.92C1184.147,234.46 1186.01,227.33 1186.01,218.53C1186.01,214.53 1184.967,211.417 1182.88,209.19C1180.787,206.95 1177.877,205.83 1174.15,205.83C1168.31,205.83 1163.5,208.523 1159.72,213.91C1155.94,219.303 1154.05,226.213 1154.05,234.64C1154.05,239.027 1155.067,242.367 1157.1,244.66C1159.133,246.96 1162.09,248.11 1165.97,248.11Z" style="fill:url(#_Linear13);"/>
        </g>
    </g>
    <defs>
        <linearGradient id="_Linear1" x1="0" y1="0" x2="1" y2="0" gradientUnits="userSpaceOnUse" gradientTransform="matrix(355,-417,417,355,78,427)"><stop offset="0" style="stop-color:rgb(255,58,183);stop-opacity:1"/><stop offset="0.48" style="stop-color:rgb(159,102,255);stop-opacity:1"/><stop offset="1" style="stop-color:rgb(37,215,255);stop-opacity:1"/></linearGradient>
        <linearGradient id="_Linear2" x1="0" y1="0" x2="1" y2="0" gradientUnits="userSpaceOnUse" gradientTransform="matrix(316,367,-367,316,98,33)"><stop offset="0" style="stop-color:rgb(23,17,91);stop-opacity:1"/><stop offset="0.55" style="stop-color:rgb(7,23,67);stop-opacity:1"/><stop offset="1" style="stop-color:rgb(4,11,39);stop-opacity:1"/></linearGradient>
        <linearGradient id="_Linear4" x1="0" y1="0" x2="1" y2="0" gradientUnits="userSpaceOnUse" gradientTransform="matrix(69,0,0,69,262,220)"><stop offset="0" style="stop-color:rgb(255,58,183);stop-opacity:1"/><stop offset="0.45" style="stop-color:rgb(159,102,255);stop-opacity:1"/><stop offset="1" style="stop-color:rgb(36,215,255);stop-opacity:1"/></linearGradient>
        <linearGradient id="_Linear5" x1="0" y1="0" x2="1" y2="0" gradientUnits="userSpaceOnUse" gradientTransform="matrix(131,94,-94,131,231,287)"><stop offset="0" style="stop-color:rgb(255,76,202);stop-opacity:1"/><stop offset="0.48" style="stop-color:rgb(183,121,255);stop-opacity:1"/><stop offset="1" style="stop-color:rgb(42,221,255);stop-opacity:1"/></linearGradient>
        <linearGradient id="_Linear6" x1="0" y1="0" x2="1" y2="0" gradientUnits="userSpaceOnUse" gradientTransform="matrix(152,152,-152,152,69,131)"><stop offset="0" style="stop-color:rgb(255,76,202);stop-opacity:1"/><stop offset="0.48" style="stop-color:rgb(183,121,255);stop-opacity:1"/><stop offset="1" style="stop-color:rgb(42,221,255);stop-opacity:1"/></linearGradient>
        <linearGradient id="_Linear7" x1="0" y1="0" x2="1" y2="0" gradientUnits="userSpaceOnUse" gradientTransform="matrix(54,56,-56,54,37,263)"><stop offset="0" style="stop-color:rgb(255,76,202);stop-opacity:1"/><stop offset="0.48" style="stop-color:rgb(183,121,255);stop-opacity:1"/><stop offset="1" style="stop-color:rgb(42,221,255);stop-opacity:1"/></linearGradient>
        <linearGradient id="_Linear8" x1="0" y1="0" x2="1" y2="0" gradientUnits="userSpaceOnUse" gradientTransform="matrix(489.71,0,0,489.71,731.28,162.7)"><stop offset="0" style="stop-color:rgb(255,57,185);stop-opacity:1"/><stop offset="0.5" style="stop-color:rgb(165,107,255);stop-opacity:1"/><stop offset="1" style="stop-color:rgb(34,207,255);stop-opacity:1"/></linearGradient>
        <linearGradient id="_Linear9" x1="0" y1="0" x2="1" y2="0" gradientUnits="userSpaceOnUse" gradientTransform="matrix(489.71,0,0,489.71,731.28,162.7)"><stop offset="0" style="stop-color:rgb(255,57,185);stop-opacity:1"/><stop offset="0.5" style="stop-color:rgb(165,107,255);stop-opacity:1"/><stop offset="1" style="stop-color:rgb(34,207,255);stop-opacity:1"/></linearGradient>
        <linearGradient id="_Linear10" x1="0" y1="0" x2="1" y2="0" gradientUnits="userSpaceOnUse" gradientTransform="matrix(489.71,0,0,489.71,731.28,162.7)"><stop offset="0" style="stop-color:rgb(255,57,185);stop-opacity:1"/><stop offset="0.5" style="stop-color:rgb(165,107,255);stop-opacity:1"/><stop offset="1" style="stop-color:rgb(34,207,255);stop-opacity:1"/></linearGradient>
        <linearGradient id="_Linear11" x1="0" y1="0" x2="1" y2="0" gradientUnits="userSpaceOnUse" gradientTransform="matrix(489.71,0,0,489.71,731.28,162.7)"><stop offset="0" style="stop-color:rgb(255,57,185);stop-opacity:1"/><stop offset="0.5" style="stop-color:rgb(165,107,255);stop-opacity:1"/><stop offset="1" style="stop-color:rgb(34,207,255);stop-opacity:1"/></linearGradient>
        <linearGradient id="_Linear12" x1="0" y1="0" x2="1" y2="0" gradientUnits="userSpaceOnUse" gradientTransform="matrix(489.71,0,0,489.71,731.28,162.7)"><stop offset="0" style="stop-color:rgb(255,57,185);stop-opacity:1"/><stop offset="0.5" style="stop-color:rgb(165,107,255);stop-opacity:1"/><stop offset="1" style="stop-color:rgb(34,207,255);stop-opacity:1"/></linearGradient>
        <linearGradient id="_Linear13" x1="0" y1="0" x2="1" y2="0" gradientUnits="userSpaceOnUse" gradientTransform="matrix(489.71,0,0,489.71,731.28,162.7)"><stop offset="0" style="stop-color:rgb(255,57,185);stop-opacity:1"/><stop offset="0.5" style="stop-color:rgb(165,107,255);stop-opacity:1"/><stop offset="1" style="stop-color:rgb(34,207,255);stop-opacity:1"/></linearGradient>
    </defs>
</svg>
